<?xml version="1.0" standalone="no"?>
<!DOCTYPE svg PUBLIC "-//W3C//DTD SVG 20010904//EN"
 "http://www.w3.org/TR/2001/REC-SVG-20010904/DTD/svg10.dtd">
<svg version="1.0" xmlns="http://www.w3.org/2000/svg"
 width="1080.000000pt" height="1080.000000pt" viewBox="0 0 1080.000000 1080.000000"
 preserveAspectRatio="xMidYMid meet">

<g transform="translate(0.000000,1080.000000) scale(0.100000,-0.100000)"
fill="#000000" stroke="none">
<path d="M0 5400 l0 -5400 5400 0 5400 0 0 5400 0 5400 -5400 0 -5400 0 0
-5400z m3554 2940 c30 1 37 -2 33 -14 -4 -9 -2 -18 3 -21 6 -4 10 3 10 13 0
13 9 21 26 25 34 6 205 -4 199 -12 -2 -4 16 -17 41 -30 24 -13 44 -28 44 -33
0 -5 11 -8 25 -6 19 2 29 -3 38 -21 7 -13 21 -26 32 -27 11 -2 29 -14 40 -28
17 -22 29 -26 72 -26 31 0 54 5 57 13 5 10 7 10 12 0 3 -7 15 -13 27 -13 18 0
19 2 7 10 -12 8 -11 10 6 10 11 0 33 -13 48 -29 l28 -29 -37 -12 c-20 -6 -34
-17 -32 -23 4 -14 134 -19 143 -6 11 18 44 10 44 -11 0 -11 -4 -20 -10 -20 -5
0 -10 -7 -10 -15 0 -8 6 -12 14 -9 8 3 17 0 21 -5 9 -15 27 -3 19 12 -3 7 3 3
13 -9 10 -12 26 -24 36 -27 9 -4 17 -16 17 -28 0 -12 8 -23 20 -26 11 -3 20
-9 20 -14 0 -5 7 -6 15 -3 11 5 13 2 8 -12 -5 -13 -3 -16 10 -11 11 4 21 -1
29 -16 6 -12 11 -23 10 -24 -7 -11 1 -21 16 -19 13 1 18 -8 20 -36 3 -35 16
-51 24 -28 2 6 8 6 18 0 13 -9 13 -11 0 -20 -10 -6 -11 -10 -2 -10 15 0 16
-32 1 -47 -20 -20 0 -34 25 -18 24 16 36 11 36 -15 0 -10 9 -29 20 -43 11 -14
20 -39 20 -55 0 -17 5 -32 11 -34 6 -2 12 -43 15 -93 5 -105 10 -125 30 -125
12 0 18 -12 16 -31 -1 -4 9 -10 21 -13 25 -6 63 -66 48 -75 -6 -4 -4 -25 6
-56 12 -36 14 -50 5 -53 -7 -2 -12 -11 -12 -20 0 -15 2 -15 10 -2 6 9 10 10
10 3 0 -6 -6 -18 -12 -25 -7 -7 -14 -19 -16 -26 -5 -25 -34 -62 -48 -62 -18 0
-39 -44 -31 -64 4 -9 18 -16 32 -16 25 0 35 -23 15 -35 -5 -3 -10 -1 -10 6 0
7 -3 9 -6 6 -4 -3 -15 -2 -25 4 -17 9 -19 6 -19 -23 0 -27 -9 -41 -46 -73 -51
-44 -91 -60 -110 -44 -7 6 -23 7 -36 3 -22 -7 -22 -7 -3 -14 18 -7 19 -8 3
-15 -10 -4 -18 -13 -18 -20 0 -7 -24 -23 -54 -35 -43 -17 -54 -26 -51 -41 5
-26 -12 -34 -40 -19 -17 9 -40 10 -82 4 -32 -4 -70 -7 -86 -5 -15 1 -34 -5
-44 -14 -9 -9 -24 -14 -34 -12 -11 3 -22 1 -25 -4 -3 -5 -13 -9 -24 -9 -21 0
-33 -25 -25 -51 4 -13 1 -21 -12 -25 -10 -3 -26 -10 -35 -15 -10 -5 -26 -9
-35 -10 -16 0 -15 -2 2 -9 14 -6 2 -9 -40 -9 -42 0 -54 3 -40 9 19 8 19 9 -3
9 -13 1 -30 -6 -38 -14 -17 -17 -81 -20 -104 -5 -12 8 -12 10 -1 10 11 0 11 3
0 17 -16 18 -16 23 2 34 10 6 10 13 1 34 -16 35 -15 66 1 59 17 -6 37 37 30
64 -6 26 17 70 55 104 27 24 30 33 31 90 1 35 6 101 11 148 13 126 14 204 5
313 -4 58 -4 102 2 110 14 18 15 67 2 67 -8 0 -10 36 -6 123 3 68 2 107 -2 87
l-8 -35 -2 33 c-1 24 -6 32 -20 32 -19 0 -31 39 -31 108 0 17 -4 32 -10 32 -5
0 -10 12 -11 28 l-1 27 -8 -25 c-4 -14 -9 -18 -9 -10 -1 8 -6 22 -11 30 -9 13
-11 13 -21 0 -9 -12 -10 -11 -6 7 5 22 -9 33 -43 33 -12 0 -20 10 -24 30 -3
20 -14 34 -30 40 -28 10 -50 45 -40 61 3 6 12 8 20 5 14 -6 19 6 7 17 -3 4
-14 0 -23 -8 -14 -13 -22 -14 -44 -4 -25 12 -37 49 -16 49 6 0 10 4 10 9 0 13
-42 21 -56 11 -8 -7 -19 5 -38 41 -14 28 -26 57 -26 64 0 8 -9 17 -20 20 -11
3 -20 11 -20 16 0 14 -42 -10 -58 -33 -10 -13 -26 -18 -60 -18 -29 0 -42 4
-34 9 10 6 6 13 -15 26 -15 10 -33 26 -40 34 -7 9 -13 11 -13 5 0 -7 -7 -15
-16 -18 -12 -4 -15 -2 -10 9 3 9 0 15 -10 15 -8 0 -17 -7 -20 -15 -8 -19 -34
-20 -34 -1 0 36 48 46 200 40 58 -2 122 -4 144 -4z m-424 -10 c-8 -5 -23 -10
-33 -10 -10 0 -28 -10 -40 -21 -12 -12 -17 -19 -11 -16 6 4 16 -5 23 -20 11
-23 10 -25 -9 -20 -11 3 -20 1 -20 -5 0 -6 -9 -8 -20 -5 -16 4 -20 0 -20 -19
0 -21 -4 -24 -32 -22 -31 3 -33 1 -31 -27 3 -25 -3 -34 -36 -54 -39 -24 -42
-29 -53 -115 -2 -10 -12 -24 -23 -30 -31 -17 -46 -39 -32 -48 9 -6 8 -8 -1 -8
-7 0 -10 -5 -7 -10 3 -6 3 -20 -1 -32 l-6 -21 -19 24 -19 24 -6 -22 c-4 -13
-10 -23 -13 -23 -4 0 -6 -13 -3 -30 2 -16 8 -27 13 -24 5 3 9 0 9 -5 0 -6 -4
-11 -10 -11 -5 0 -10 -10 -11 -22 0 -13 -3 -17 -6 -10 -2 6 -13 12 -23 12 -15
0 -20 10 -25 45 -8 50 -29 75 -47 57 -8 -8 -9 -26 -2 -59 7 -38 13 -47 27 -45
15 3 19 -7 16 -34 -1 -10 35 -33 53 -34 11 0 18 10 21 33 2 17 4 3 4 -33 1
-49 -1 -58 -7 -35 -7 28 -8 28 -9 -12 0 -23 -5 -43 -10 -45 -16 -6 -23 -149
-22 -425 1 -171 -2 -273 -8 -273 -5 0 -12 6 -14 13 -3 7 -6 4 -6 -6 -1 -10 6
-25 14 -33 21 -22 21 -130 -1 -138 -8 -3 -13 -10 -9 -15 6 -10 15 -130 18
-248 1 -39 5 -66 9 -60 6 9 8 9 8 -1 0 -6 5 -11 12 -10 7 2 15 -10 18 -27 3
-16 15 -50 26 -75 12 -26 22 -70 23 -105 1 -33 6 -64 12 -69 15 -16 11 -46 -6
-46 -13 0 -14 -4 -4 -22 12 -22 12 -22 21 -3 5 13 6 9 2 -14 -5 -28 -4 -33 10
-28 8 3 18 2 21 -3 4 -6 -3 -10 -14 -10 -12 0 -21 -4 -21 -10 0 -5 6 -10 13
-10 8 0 24 -19 35 -42 17 -33 20 -50 13 -73 -4 -16 -13 -29 -19 -28 -16 3 -22
-35 -6 -41 9 -3 16 4 20 19 8 34 30 31 43 -5 11 -33 5 -90 -10 -90 -12 0 -12
-167 0 -174 5 -3 14 1 22 10 7 8 22 14 33 13 35 -2 37 0 25 22 -8 15 -8 19 0
15 6 -4 11 -2 11 5 0 10 3 10 11 2 9 -9 9 -20 -1 -42 -7 -17 -16 -31 -21 -31
-5 0 -9 -5 -9 -11 0 -6 9 -8 20 -4 15 5 22 0 30 -21 12 -31 57 -79 73 -79 14
0 34 -52 24 -62 -4 -3 -14 2 -23 13 -13 16 -15 17 -10 2 3 -10 1 -18 -4 -18
-5 0 -7 -6 -4 -14 6 -15 64 -28 64 -14 0 23 28 4 39 -27 7 -19 16 -35 21 -35
4 0 11 -11 14 -24 6 -25 37 -42 69 -37 21 3 23 -22 2 -39 -16 -13 -15 -35 1
-35 5 0 15 -4 22 -9 7 -4 24 -5 38 -2 14 4 24 2 24 -4 0 -6 20 -11 48 -11 87
1 187 -16 229 -37 23 -12 56 -22 73 -22 17 0 40 -5 50 -10 11 -6 43 -10 72 -9
29 0 77 0 106 -1 30 0 60 4 68 11 7 6 21 8 31 5 17 -7 79 19 98 40 6 7 46 14
90 17 44 2 87 7 96 11 10 5 20 -1 29 -18 20 -38 40 -42 30 -5 -7 24 -6 29 10
29 10 0 20 6 23 14 9 22 55 7 78 -25 24 -34 39 -37 39 -9 0 13 -7 20 -20 20
-23 0 -23 0 -10 34 8 22 16 26 49 26 41 0 67 20 57 45 -4 10 3 17 22 21 40 10
56 25 40 36 -10 7 -10 8 2 7 27 -3 80 25 80 43 0 25 19 32 39 14 10 -9 34 -16
53 -16 29 0 37 4 42 24 7 30 -12 86 -30 86 -16 0 -19 16 -5 24 5 4 12 0 14 -6
3 -7 6 4 6 25 1 20 5 37 10 37 4 0 6 11 3 25 -4 25 -35 35 -47 15 -10 -16 -19
-12 -32 15 -6 14 -7 23 -2 19 5 -3 9 3 9 13 0 11 5 24 10 29 17 17 0 44 -26
44 -19 0 -24 5 -24 24 0 18 8 27 32 35 l32 11 -22 20 c-12 11 -28 20 -37 20
-8 0 -15 5 -15 10 0 15 37 12 54 -5 16 -16 121 -22 112 -6 -6 9 16 21 39 21
13 0 31 -36 27 -52 -4 -14 26 -8 42 7 8 8 26 15 40 15 14 0 30 8 35 18 9 14
10 14 11 1 0 -13 24 -15 188 -15 145 1 193 4 206 15 13 11 51 12 209 6 251
-10 542 -9 642 2 45 5 110 5 150 0 83 -11 150 -12 265 -7 89 4 428 -7 440 -15
4 -3 34 -5 66 -5 33 0 80 -2 107 -3 35 -3 47 0 47 10 0 20 70 6 92 -18 26 -30
54 -23 50 12 -1 6 13 6 123 -5 48 -5 251 -16 395 -21 58 -2 116 -6 130 -9 14
-2 34 -5 45 -5 11 -1 34 -15 52 -31 32 -30 53 -38 53 -20 0 19 76 11 95 -10
10 -11 30 -20 45 -20 48 0 90 -12 90 -25 0 -8 13 -16 29 -20 16 -3 41 -17 56
-31 14 -13 38 -24 53 -24 31 0 92 -65 69 -73 -6 -3 9 -10 34 -17 33 -10 51
-22 68 -48 12 -18 20 -40 17 -48 -7 -18 34 -36 51 -22 16 13 25 -6 17 -37 -7
-28 -2 -30 27 -15 24 13 36 -9 21 -37 -8 -15 -5 -24 14 -42 14 -13 24 -18 24
-10 0 18 13 2 16 -19 19 -169 23 -262 16 -373 -10 -131 -17 -163 -33 -138 -6
10 -9 6 -9 -13 0 -15 -4 -30 -10 -33 -5 -3 -10 -15 -10 -26 0 -10 -6 -19 -13
-19 -8 0 -20 -11 -27 -25 -13 -25 -40 -35 -40 -15 0 6 -4 10 -10 10 -5 0 -10
-6 -10 -14 0 -9 -8 -12 -25 -8 -18 3 -27 -1 -32 -14 -10 -27 -33 -49 -33 -33
0 12 -14 4 -16 -9 0 -4 -4 -15 -8 -25 -5 -10 -1 -31 9 -53 18 -38 17 -39 -18
-100 -26 -44 -63 -74 -99 -80 -24 -4 -38 -12 -38 -21 0 -11 -7 -13 -25 -9 -14
4 -25 3 -25 -2 0 -17 -60 -42 -93 -38 -31 4 -34 2 -29 -20 4 -20 0 -24 -22
-24 -16 0 -26 -5 -26 -15 0 -8 -4 -15 -8 -15 -5 0 -14 -12 -21 -26 -8 -19 -15
-23 -24 -16 -30 24 -104 2 -113 -34 -5 -20 -12 -24 -47 -24 -47 0 -194 -16
-282 -30 -68 -11 -564 -21 -639 -13 -33 4 -44 8 -35 14 11 7 10 9 -3 9 -10 0
-18 6 -19 13 0 6 -2 8 -5 2 -5 -12 -104 -7 -104 6 0 5 -8 10 -17 10 -10 1 -4
5 12 9 28 7 27 8 -12 9 -24 0 -43 -4 -43 -9 0 -7 -6 -7 -17 -2 -11 5 -26 4
-40 -3 -18 -9 -20 -14 -10 -25 10 -12 9 -12 -4 -2 -12 9 -23 9 -50 -1 -19 -6
-36 -15 -39 -19 -3 -4 -14 -7 -25 -7 -11 0 -63 -4 -115 -10 -113 -13 -130 -25
-112 -75 7 -19 10 -46 6 -60 -4 -17 0 -35 11 -52 9 -15 18 -37 20 -51 1 -13 5
-26 8 -29 11 -12 81 -6 91 8 15 18 46 20 39 2 -3 -8 -10 -14 -17 -14 -6 0 -12
-9 -13 -20 -1 -15 4 -20 23 -20 14 0 34 -4 44 -10 13 -7 35 -6 69 2 47 11 51
10 69 -11 11 -14 30 -24 50 -25 28 -1 82 -36 56 -36 -28 0 -6 -31 34 -45 34
-14 43 -21 39 -36 -4 -14 0 -19 15 -19 17 0 18 3 9 14 -9 11 -9 16 2 23 8 4
17 15 20 23 5 13 6 13 6 0 1 -12 18 -16 79 -17 153 -5 251 -15 249 -26 -4 -21
92 -29 363 -29 228 -1 283 2 320 15 25 8 39 16 31 16 -8 1 -11 4 -7 9 4 4 74
9 154 12 118 5 152 9 174 24 14 9 44 19 65 22 20 3 47 13 58 23 23 22 90 42
111 34 12 -5 19 7 15 30 -1 10 13 9 43 -3 30 -11 41 1 38 41 -2 22 3 28 26 33
15 4 32 17 37 29 14 32 57 30 66 -3 4 -14 7 -18 8 -8 1 9 -3 28 -9 43 -8 20
-7 27 5 31 16 6 45 -12 45 -27 0 -5 -6 -6 -13 -3 -8 3 -14 -2 -14 -11 0 -9 6
-14 13 -11 7 3 15 -2 18 -10 10 -25 7 -34 -11 -34 -15 0 -15 -2 0 -17 12 -15
14 -39 11 -138 -2 -66 -4 -186 -5 -267 0 -82 -5 -150 -10 -154 -12 -7 -12
-141 1 -149 6 -4 6 -15 0 -31 -6 -14 -10 -42 -10 -62 0 -28 -3 -33 -10 -22 -7
10 -10 -22 -10 -101 0 -64 -3 -143 -6 -177 l-7 -61 -71 4 c-39 3 -83 7 -98 10
-14 4 -29 1 -33 -4 -3 -6 -1 -11 4 -11 6 0 11 -4 11 -10 0 -5 -9 -10 -20 -10
-15 0 -20 7 -20 25 0 21 -5 25 -30 25 -25 0 -30 -4 -30 -24 0 -14 5 -28 10
-31 23 -14 7 -25 -35 -25 -43 0 -60 -12 -32 -23 6 -3 -1 -6 -18 -6 -23 -1 -26
2 -15 9 13 8 12 11 -5 24 -22 17 -41 19 -70 6 -15 -7 -16 -9 -4 -9 9 -1 22 -8
29 -17 11 -13 10 -16 -8 -21 -12 -3 -19 -9 -16 -14 3 -5 -4 -9 -16 -9 -11 0
-23 -6 -26 -13 -6 -17 -77 -21 -105 -6 -17 9 -23 8 -30 -2 -6 -11 -54 -14
-218 -13 -186 0 -212 2 -229 18 -14 12 -37 17 -73 18 -72 0 -89 6 -89 29 0 13
8 20 23 21 12 1 29 2 37 4 8 1 21 2 28 3 26 2 1 19 -38 26 -27 5 -49 2 -70 -8
-16 -9 -31 -11 -31 -6 -3 19 -5 25 -16 44 -10 16 -15 18 -31 9 -14 -9 -26 -9
-49 1 -29 12 -71 21 -142 30 -44 6 -47 9 -69 80 l-19 60 -44 1 c-50 1 -121 25
-127 42 -2 7 1 12 7 12 6 0 11 9 11 20 0 23 -10 26 -29 8 -10 -11 -15 -10 -25
4 -7 10 -19 18 -26 18 -7 0 -18 7 -25 17 -10 13 -8 20 7 35 24 24 23 38 -2 38
-13 0 -20 7 -20 20 0 26 -38 47 -46 25 -3 -8 -15 -15 -25 -15 -14 0 -19 7 -19
27 0 26 1 26 15 7 18 -23 19 -5 3 33 -17 37 -42 60 -86 74 -31 10 -34 13 -19
24 24 17 21 42 -6 60 -13 8 -30 27 -37 40 -8 14 -19 24 -26 21 -7 -3 -20 4
-30 15 -9 10 -13 19 -9 19 5 0 -4 13 -19 29 -15 15 -26 34 -24 42 2 8 -3 13
-10 11 -8 -1 -22 19 -35 47 -14 34 -27 51 -41 53 -17 2 -21 10 -20 35 1 18 -2
30 -7 28 -4 -3 -10 -1 -14 5 -4 6 -10 8 -14 5 -5 -2 -16 13 -26 35 -10 22 -24
40 -30 40 -7 0 -16 20 -20 45 -4 29 -13 50 -26 58 -21 13 -27 81 -9 92 17 10
12 20 -35 71 -36 40 -45 56 -45 87 0 21 -4 36 -9 33 -5 -3 -11 1 -15 9 -3 8
-17 15 -31 15 -14 0 -25 5 -25 10 0 6 -4 10 -10 10 -5 0 -10 -7 -10 -16 0 -8
-4 -13 -8 -10 -4 2 -14 1 -22 -5 -12 -7 -9 -9 10 -10 21 0 18 -3 -15 -15 -48
-18 -57 -30 -50 -69 4 -28 4 -29 -10 -11 -13 17 -15 18 -15 3 0 -9 -5 -17 -10
-17 -6 0 -3 -11 6 -25 13 -21 14 -33 6 -68 -6 -23 -8 -63 -5 -89 3 -27 1 -53
-5 -60 -5 -7 -11 -35 -11 -63 -3 -85 -6 -103 -17 -98 -18 7 -25 -103 -8 -135
7 -15 14 -33 14 -39 0 -7 5 -13 10 -13 6 0 10 -9 10 -19 0 -11 7 -26 15 -34
17 -18 23 -32 12 -32 -11 0 -38 -56 -31 -66 3 -5 11 -6 17 -2 7 4 7 0 -1 -10
-15 -18 -8 -37 12 -37 8 0 17 -8 20 -17 12 -33 33 -63 39 -56 4 3 7 -30 7 -74
0 -75 2 -81 23 -88 l22 -7 -25 -8 c-23 -7 -12 -15 18 -11 7 1 12 -11 12 -34 0
-27 -4 -35 -17 -35 -15 0 -16 -2 -3 -10 12 -8 12 -11 -2 -27 -24 -26 -33 -70
-18 -88 7 -8 16 -12 21 -10 4 3 12 -3 18 -12 10 -17 10 -17 11 0 0 9 5 17 10
17 6 0 10 -9 10 -19 0 -11 5 -32 10 -46 10 -26 11 -27 35 -11 24 16 25 16 25
-9 0 -14 -6 -25 -12 -26 -10 0 -10 -2 0 -6 6 -2 12 -9 12 -14 0 -6 -4 -7 -10
-4 -5 3 -10 1 -10 -4 0 -7 -32 -11 -82 -12 -60 -1 -75 -4 -53 -9 l30 -8 -30
-2 c-76 -6 -360 2 -363 11 -5 12 -162 12 -162 -1 0 -6 -139 -10 -396 -10 -338
0 -398 2 -410 15 -20 19 -54 19 -54 0 0 -8 -9 -15 -21 -15 -11 0 -17 5 -14 10
3 6 1 10 -5 10 -6 0 -10 6 -9 13 4 30 -2 47 -16 47 -8 0 -15 5 -15 10 0 6 -6
10 -12 9 -32 -4 -47 3 -63 27 -9 15 -13 24 -7 20 5 -3 15 16 22 42 7 26 14 55
17 65 2 9 10 17 18 17 7 0 21 7 30 16 13 13 13 19 3 31 -10 13 -14 13 -26 -4
-12 -16 -13 -15 -8 11 3 16 10 33 17 36 7 5 12 42 13 96 1 82 3 90 24 99 12 5
25 18 28 27 3 10 10 18 15 18 5 0 9 16 9 36 0 21 -4 33 -10 29 -6 -4 -10 17
-9 57 2 63 2 63 8 16 4 -26 10 -51 15 -55 4 -4 7 -1 5 7 -2 8 3 26 10 39 7 12
10 32 8 43 -3 11 1 38 9 61 12 33 12 47 3 70 -7 17 -8 32 -3 35 5 4 10 25 10
47 1 22 5 78 10 125 5 47 9 299 9 561 0 389 -3 479 -14 492 -9 11 -10 17 -2
17 14 0 14 30 0 50 -9 13 -10 13 -6 -1 3 -9 1 -22 -4 -30 -5 -9 -8 16 -8 66 1
51 4 69 8 50 4 -20 9 -26 14 -17 5 7 5 27 1 45 -4 17 -6 47 -5 65 1 21 -4 34
-14 38 -9 4 -15 19 -15 39 0 28 -3 32 -19 28 -17 -4 -20 4 -26 94 -4 54 -12
104 -17 110 -13 16 -84 7 -118 -16 -14 -9 -31 -16 -39 -16 -8 0 -16 -11 -18
-25 -5 -41 -11 -50 -27 -44 -9 3 -14 9 -13 12 1 4 -2 9 -8 12 -6 3 -9 -10 -7
-32 3 -29 0 -38 -11 -38 -9 0 -17 5 -19 12 -8 22 -29 -4 -26 -30 2 -20 -3 -30
-19 -37 -12 -5 -24 -17 -26 -27 -4 -14 -13 -16 -53 -12 -27 3 -50 9 -52 14 -5
12 -62 -13 -62 -27 0 -7 -10 -17 -21 -24 -16 -8 -18 -13 -9 -19 9 -6 7 -11 -9
-19 -11 -7 -21 -19 -21 -29 -1 -22 -27 -57 -43 -57 -7 0 -16 -10 -22 -23 -8
-18 -16 -23 -37 -19 -16 2 -28 1 -28 -2 0 -11 -98 -61 -118 -61 -12 0 -24 -5
-27 -10 -4 -6 -16 -8 -28 -4 -22 6 -22 6 -2 -10 19 -14 17 -15 -32 -16 -29 0
-53 5 -53 10 0 6 7 10 15 10 8 0 15 7 15 15 0 8 6 15 13 15 6 0 4 5 -6 11 -14
8 -24 5 -48 -15 -17 -14 -35 -26 -41 -26 -6 0 -20 -8 -30 -17 -11 -10 -34 -18
-51 -18 -128 -5 -122 -4 -101 -20 19 -16 11 -16 -213 -4 -13 1 -20 5 -17 10 3
5 -10 9 -28 9 -19 0 -39 5 -46 12 -9 9 -16 7 -31 -9 -11 -11 -17 -24 -14 -27
4 -3 -8 -6 -25 -6 -20 0 -32 5 -32 14 0 14 -46 24 -155 32 -77 7 -85 10 -85
32 0 14 -7 18 -29 16 -22 -1 -28 2 -24 15 5 21 -42 50 -58 34 -16 -16 -106 5
-112 27 -2 9 -19 20 -38 25 -19 4 -41 10 -49 12 -15 5 -133 21 -157 22 -7 1
-13 8 -13 16 0 11 -7 14 -25 9 -19 -5 -25 -2 -25 10 0 9 5 16 10 16 17 0 11
27 -7 34 -11 4 -22 1 -29 -8 -8 -12 -20 -14 -43 -10 -28 6 -45 24 -21 24 6 0
10 4 10 10 0 5 -3 9 -7 9 -21 -3 -32 3 -38 20 -3 11 -19 21 -36 25 -17 3 -28
10 -24 16 4 6 -9 10 -31 10 -29 0 -46 8 -71 32 -18 18 -33 27 -33 21 0 -6 -9
-9 -21 -6 -14 4 -17 9 -10 16 19 19 12 47 -14 57 -16 6 -25 18 -26 32 0 13 -3
17 -6 11 -7 -18 -23 -16 -37 2 -7 10 -34 18 -69 22 -59 6 -70 16 -39 39 14 10
15 16 5 31 -6 10 -16 17 -22 15 -6 -1 -11 7 -11 18 0 11 -7 20 -15 20 -9 0
-19 10 -24 23 -16 42 -112 100 -127 76 -13 -22 -26 -7 -21 26 5 28 2 37 -14
45 -11 6 -19 21 -19 35 0 14 -4 25 -10 25 -5 0 -10 7 -10 16 0 11 -6 15 -20
11 -16 -4 -18 -2 -10 13 10 19 1 31 -32 43 -13 5 -18 1 -18 -13 0 -20 -19 -29
-21 -10 -1 6 -3 15 -4 20 -1 6 -3 19 -4 30 0 12 -12 25 -26 30 -18 7 -25 17
-25 36 0 17 -6 28 -19 31 -26 7 -33 52 -13 86 16 27 16 29 -1 42 -12 8 -14 15
-7 20 7 4 4 16 -10 35 -11 15 -20 33 -20 40 0 6 -5 8 -11 5 -21 -14 -69 62
-69 108 0 13 -5 28 -12 35 -9 9 -7 12 9 12 26 0 31 21 20 87 -7 44 -11 51 -22
40 -21 -22 -29 -74 -11 -80 23 -9 20 -33 -4 -33 -17 0 -20 7 -20 53 0 29 5 53
10 53 6 0 10 9 10 20 0 11 -5 20 -11 20 -8 0 -9 11 -4 33 4 17 9 100 10 182 1
83 6 165 10 184 4 21 4 31 -3 27 -5 -3 -12 8 -14 24 -3 17 -1 30 4 30 4 0 8
11 8 25 0 13 11 44 24 67 19 35 23 53 19 91 -5 41 -3 47 11 41 10 -4 16 -1 16
9 0 9 7 22 15 30 8 8 16 29 17 46 1 17 5 31 9 31 16 0 51 71 43 88 -13 31 0
67 16 42 7 -10 10 -11 10 -2 0 6 7 12 15 12 10 0 15 10 15 29 0 16 -6 31 -15
35 -26 10 -16 26 16 26 29 0 30 1 24 33 -4 17 -7 34 -7 37 -1 27 4 40 14 37 6
-1 20 15 30 36 10 20 22 37 27 37 5 0 14 14 20 30 5 17 16 30 24 30 7 0 20 21
28 48 13 40 19 47 41 47 22 0 32 9 50 44 13 25 30 47 37 49 8 3 11 0 8 -6 -4
-5 0 -15 8 -22 12 -10 18 -10 31 1 13 10 17 10 25 -2 6 -10 9 -10 9 -1 0 6 7
12 15 12 29 0 16 48 -17 66 -15 8 -12 15 23 54 23 25 45 44 49 43 4 -1 25 17
47 41 24 26 53 47 71 51 17 3 30 12 29 18 -1 6 9 13 22 15 13 2 37 17 53 33
16 16 34 29 39 29 10 0 83 45 112 69 30 25 88 41 109 30 12 -6 18 -6 18 1 0 5
-4 10 -10 10 -5 0 -10 7 -10 15 0 12 5 13 26 4 31 -11 73 10 81 42 7 24 19 24
28 2 6 -17 7 -17 16 0 6 9 15 17 21 17 7 0 21 8 32 19 31 28 66 36 66 15 0 -9
-8 -23 -17 -30 -10 -8 5 -3 34 11 29 14 58 33 65 43 7 9 22 22 33 29 25 15
138 18 115 3z m0 -20 c0 -5 -5 -10 -11 -10 -5 0 -7 5 -4 10 3 6 8 10 11 10 2
0 4 -4 4 -10z m50 -5 c0 -8 -4 -15 -10 -15 -5 0 -10 7 -10 15 0 8 5 15 10 15
6 0 10 -7 10 -15z m3638 -665 c47 0 10 -17 -49 -23 -68 -6 -80 -16 -72 -62 8
-51 10 -53 62 -60 28 -4 51 -10 51 -15 0 -9 -35 -20 -66 -20 -27 0 -44 -20
-50 -59 -6 -36 9 -46 81 -56 72 -10 83 -14 65 -25 -19 -12 -130 -13 -148 -1
-16 10 -26 148 -17 248 7 80 14 85 85 77 19 -2 45 -4 58 -4z m350 4 c41 -12
22 -24 -36 -24 -75 0 -98 -20 -80 -68 13 -34 7 -48 -16 -39 -23 9 -14 119 11
128 23 9 91 11 121 3z m336 -2 c3 -5 -8 -18 -24 -30 -16 -12 -30 -32 -32 -44
-4 -22 -5 -22 -16 4 -12 30 -40 48 -71 48 -25 0 -28 17 -3 23 31 8 141 7 146
-1z m-346 -153 c32 -11 37 -20 47 -77 13 -78 -56 -122 -153 -96 -31 9 -22 29
14 30 104 2 101 0 107 46 7 52 -2 64 -54 73 -39 7 -50 19 -26 28 20 8 32 8 65
-4z m290 -79 c2 -38 -1 -60 -7 -60 -7 0 -11 24 -11 60 0 33 3 60 8 60 4 0 9
-27 10 -60z m260 -81 c-2 -6 -8 -10 -13 -10 -5 0 -11 4 -13 10 -2 6 4 11 13
11 9 0 15 -5 13 -11z m-1037 -399 c12 0 19 -7 19 -19 0 -16 -6 -17 -52 -13
-54 4 -83 18 -57 26 8 2 21 7 29 9 8 3 21 4 28 1 8 -2 22 -4 33 -4z m382 1 c4
-1 7 -8 7 -16 0 -16 -52 -21 -84 -9 -37 14 -6 33 44 28 14 -1 28 -3 33 -3z
m367 0 c17 -5 25 -14 26 -29 1 -20 0 -21 -15 -8 -10 9 -32 13 -58 11 -31 -2
-43 0 -43 10 0 8 10 16 23 18 31 6 39 6 67 -2z m396 -46 c3 -19 1 -57 -6 -85
-15 -61 -8 -92 22 -105 35 -15 34 -41 -3 -59 -28 -14 -35 -14 -48 -2 -9 7 -42
16 -73 18 -32 3 -61 7 -64 11 -4 3 5 20 20 37 14 17 26 39 27 48 0 9 5 1 12
-18 9 -26 18 -36 38 -38 54 -6 65 67 14 90 -14 6 -25 18 -25 26 0 19 59 112
71 112 4 0 11 -16 15 -35z m-710 -31 c-6 -16 -8 -16 -23 -2 -9 10 -13 23 -9
34 6 16 8 16 23 2 9 -10 13 -23 9 -34z m-165 13 c-13 -13 -26 -3 -16 12 3 6
11 8 17 5 6 -4 6 -10 -1 -17z m-41 -107 c0 -89 -12 -119 -24 -59 -8 40 -8 113
0 133 15 38 24 9 24 -74z m250 12 c0 -62 -16 -88 -22 -37 -5 48 2 96 13 89 5
-3 9 -26 9 -52z m-458 -14 c-18 -18 -33 1 -21 24 11 20 12 20 21 4 7 -12 7
-21 0 -28z m768 10 c0 -5 -7 -8 -15 -8 -15 0 -20 21 -8 33 7 7 23 -11 23 -25z
m-818 -60 c-6 -6 -15 -9 -18 -5 -4 3 -4 14 0 23 5 13 9 15 18 6 9 -9 9 -15 0
-24z m766 10 c-6 -18 -28 -21 -28 -4 0 9 7 16 16 16 9 0 14 -5 12 -12z m-798
-58 c11 -11 32 -22 47 -26 47 -10 54 -14 48 -24 -7 -12 -134 -13 -153 -1 -10
6 -9 14 5 39 21 37 26 39 53 12z m493 14 c12 -12 -23 -64 -46 -69 -13 -4 -46
-5 -73 -3 -43 3 -49 6 -52 26 -3 21 -1 22 17 13 41 -22 131 -6 131 24 0 15 12
20 23 9z m266 -19 c13 -14 35 -25 50 -25 39 0 59 -16 29 -23 -34 -10 -131 -8
-147 2 -11 7 -10 13 8 32 11 12 21 26 21 31 0 15 15 8 39 -17z m18 -861 c-3
-3 -12 -4 -19 -1 -8 3 -5 6 6 6 11 1 17 -2 13 -5z m-5591 -341 c-11 -11 -17 4
-9 23 7 18 8 18 11 1 2 -10 1 -21 -2 -24z m34 7 c0 -5 -5 -10 -11 -10 -5 0 -7
5 -4 10 3 6 8 10 11 10 2 0 4 -4 4 -10z m3000 -10 c0 -5 -4 -10 -10 -10 -5 0
-10 5 -10 10 0 6 5 10 10 10 6 0 10 -4 10 -10z m-2826 -194 c-6 -15 -24 -23
-24 -11 0 8 24 34 28 30 1 -1 0 -10 -4 -19z m191 -146 c3 -5 1 -10 -4 -10 -6
0 -11 5 -11 10 0 6 2 10 4 10 3 0 8 -4 11 -10z m55 -49 c0 -6 -4 -13 -10 -16
-5 -3 -10 1 -10 9 0 9 5 16 10 16 6 0 10 -4 10 -9z m2324 -190 c9 -14 -4 -41
-19 -41 -18 0 -28 17 -21 35 6 17 32 20 40 6z m-664 -321 c0 -5 -7 -10 -15
-10 -8 0 -15 5 -15 10 0 6 7 10 15 10 8 0 15 -4 15 -10z m5100 -46 c0 -8 -5
-12 -10 -9 -6 4 -8 11 -5 16 9 14 15 11 15 -7z m-50 -61 c0 -10 -10 -13 -37
-11 -39 3 -57 24 -26 30 30 6 63 -4 63 -19z m-6660 -763 c21 -13 9 -20 -51
-27 -72 -8 -89 -24 -89 -85 0 -46 2 -50 35 -64 53 -22 83 -18 118 17 29 29 32
30 44 13 7 -10 13 -30 13 -45 0 -14 7 -32 15 -39 12 -10 15 -29 13 -74 -3 -58
-4 -61 -30 -64 -19 -2 -28 -10 -30 -25 -4 -26 -33 -34 -128 -36 -40 -1 -71 4
-78 11 -15 15 -17 380 -2 409 9 16 22 19 83 19 40 0 79 -4 87 -10z m496 0 c35
-14 25 -22 -31 -26 -28 -3 -52 -11 -65 -24 -11 -11 -23 -20 -28 -20 -4 0 -19
-11 -34 -25 -20 -18 -28 -38 -33 -79 -9 -73 0 -110 41 -154 19 -20 34 -41 34
-45 0 -16 -53 -1 -64 18 -6 11 -17 25 -25 31 -18 15 -28 192 -12 222 6 12 16
21 21 19 6 -1 16 9 23 23 7 14 21 26 32 28 11 2 25 10 30 17 19 23 70 30 111
15z m386 -17 c15 -15 28 -32 28 -39 0 -7 11 -26 25 -42 28 -34 37 -77 16 -77
-8 0 -19 9 -25 20 -17 30 -30 36 -46 19 -11 -11 -16 -45 -18 -137 -3 -130 -7
-156 -22 -141 -13 13 -22 381 -10 405 14 25 19 24 52 -8z m278 -193 l0 -210
-28 0 c-23 0 -34 10 -65 56 -39 59 -48 104 -22 104 8 0 15 -4 15 -9 0 -5 10
-13 22 -17 39 -12 48 17 48 151 0 116 3 135 22 135 4 0 8 -94 8 -210z m-1103
144 c-12 -13 -37 6 -37 28 l0 22 22 -21 c12 -13 19 -25 15 -29z m517 26 c20
-7 26 -17 26 -37 -1 -25 -2 -26 -13 -11 -7 9 -25 20 -40 23 -27 7 -33 16 -20
28 9 9 17 9 47 -3z m438 -185 c4 -16 5 -31 2 -34 -9 -9 -34 30 -34 52 0 28 23
15 32 -18z m-408 -124 c7 -11 -85 -70 -120 -76 -33 -6 -82 5 -86 20 -2 6 25
14 60 18 34 5 62 13 62 18 0 20 74 37 84 20z m4331 -471 c-3 -5 -12 -7 -20 -3
-21 7 -19 13 6 13 11 0 18 -4 14 -10z m-5476 -36 c47 -10 32 -28 -25 -32 -66
-4 -73 -7 -85 -39 -12 -33 -4 -87 17 -108 24 -24 99 -20 124 7 28 30 35 64 21
95 -9 21 -9 28 1 34 26 17 36 -12 37 -109 1 -74 5 -100 16 -108 9 -7 15 -27
15 -55 -1 -37 -6 -50 -35 -78 -33 -33 -37 -34 -128 -39 -61 -3 -97 -1 -101 6
-15 24 -9 400 7 420 10 13 84 16 136 6z m989 -16 c3 -14 -4 -18 -31 -18 -46 0
-101 -38 -105 -73 -4 -35 37 -74 87 -83 74 -14 93 -44 27 -44 -56 0 -98 12
-103 29 -2 9 -14 21 -26 26 -26 12 -31 32 -22 91 4 29 11 44 21 44 8 0 19 11
24 26 9 23 14 25 67 22 46 -2 59 -7 61 -20z m468 11 c11 -18 -15 -27 -74 -27
-68 1 -82 -14 -82 -89 0 -58 14 -73 67 -73 37 0 73 -10 73 -21 0 -4 -21 -11
-47 -14 -82 -11 -93 -21 -93 -81 0 -70 15 -84 89 -84 38 0 63 -5 70 -14 9 -11
8 -15 -5 -20 -23 -9 -167 -7 -182 2 -9 6 -12 56 -10 208 2 109 7 205 11 212
11 16 173 17 183 1z m337 5 c51 -9 46 -20 -12 -28 -27 -3 -55 -14 -62 -23 -19
-23 -19 -304 0 -326 8 -11 33 -17 77 -19 51 -2 62 -6 55 -17 -12 -19 -165 -29
-176 -11 -8 14 -8 408 1 421 6 10 63 11 117 3z m-1302 -35 c12 -42 10 -89 -3
-89 -7 0 -30 -3 -50 -6 -33 -6 -38 -4 -38 12 0 42 21 91 43 102 30 14 40 10
48 -19z m1417 -31 c5 -24 -20 -23 -49 2 l-24 20 35 -2 c24 -2 36 -8 38 -20z
m42 -75 c-1 -51 -12 -44 -25 15 -5 25 -3 32 9 32 12 0 16 -11 16 -47z m-1415
-6 c4 -13 7 -39 8 -59 1 -27 8 -40 23 -47 17 -7 23 -20 26 -56 3 -42 2 -46
-17 -39 -11 4 -62 9 -113 11 -73 4 -98 2 -117 -11 -22 -15 -24 -14 -30 4 -9
27 4 80 20 86 7 3 16 25 19 48 4 24 14 52 22 62 14 17 15 13 11 -54 -4 -62 -2
-74 14 -82 26 -14 74 -12 116 5 35 15 35 16 18 35 -21 23 -34 120 -16 120 6 0
13 -10 16 -23z m502 -99 c6 -7 10 -40 9 -73 -1 -50 -4 -60 -20 -63 -16 -3 -18
0 -11 25 10 34 10 48 0 91 -8 33 4 43 22 20z m923 -49 c0 -29 -24 -57 -35 -40
-3 6 -1 29 5 52 9 31 14 39 21 28 5 -8 9 -26 9 -40z m3935 -9 c3 -5 -1 -10 -9
-10 -9 0 -16 5 -16 10 0 6 4 10 9 10 6 0 13 -4 16 -10z m-5051 -57 c4 -9 3
-20 -2 -25 -11 -11 -36 17 -27 32 9 15 22 12 29 -7z m1069 10 c11 -10 -13 -33
-34 -33 -22 0 -24 11 -7 28 13 13 31 16 41 5z m-1274 -60 c1 -7 -6 -13 -14
-13 -15 0 -21 40 -8 54 7 7 21 -18 22 -41z m371 8 c0 -19 -29 -31 -71 -31 -56
0 -79 7 -79 26 0 9 18 14 63 16 65 3 87 0 87 -11z m1195 -22 c-5 -7 -11 -6
-21 2 -11 9 -12 15 -2 26 10 12 13 12 20 -1 5 -9 6 -21 3 -27z m-1920 22 c3
-5 1 -12 -5 -16 -5 -3 -10 1 -10 9 0 18 6 21 15 7z m4532 3 c-3 -3 -12 -4 -19
-1 -8 3 -5 6 6 6 11 1 17 -2 13 -5z"/>
<path d="M4559 7893 c-6 -52 0 -73 21 -73 18 0 24 -12 23 -47 -1 -16 29 -17
45 -1 13 13 -3 52 -19 43 -5 -4 -9 -1 -9 5 0 6 -12 15 -26 20 -15 6 -24 16
-21 24 3 7 1 19 -4 27 -6 10 -9 11 -10 2z"/>
<path d="M4350 7672 c0 -5 -10 -13 -22 -19 -13 -5 -26 -26 -34 -51 -11 -39
-10 -42 7 -42 17 0 24 16 20 43 -1 4 24 4 54 1 52 -6 55 -5 55 15 0 14 -9 25
-24 31 -13 5 -27 14 -31 19 -7 13 -25 15 -25 3z"/>
<path d="M4785 7590 c3 -5 8 -10 11 -10 2 0 4 5 4 10 0 6 -5 10 -11 10 -5 0
-7 -4 -4 -10z"/>
<path d="M4240 7521 c0 -10 5 -33 12 -52 12 -34 12 -34 19 -9 14 51 10 80 -11
80 -13 0 -20 -7 -20 -19z"/>
<path d="M4238 7400 c2 -22 6 -40 8 -40 2 0 4 18 4 40 0 22 -3 40 -8 40 -4 0
-6 -18 -4 -40z"/>
<path d="M4203 7240 c0 -25 2 -35 4 -22 2 12 2 32 0 45 -2 12 -4 2 -4 -23z"/>
<path d="M4750 7255 c0 -17 5 -25 13 -22 6 2 12 12 12 22 0 10 -6 20 -12 23
-8 2 -13 -6 -13 -23z"/>
<path d="M4610 7230 c19 -13 30 -13 30 0 0 6 -10 10 -22 10 -19 0 -20 -2 -8
-10z"/>
<path d="M4600 7080 c0 -22 5 -40 10 -40 6 0 10 18 10 40 0 22 -4 40 -10 40
-5 0 -10 -18 -10 -40z"/>
<path d="M4857 7083 c-12 -11 -8 -23 8 -23 8 0 15 7 15 15 0 16 -12 20 -23 8z"/>
<path d="M4240 6783 c-1 -22 -27 -58 -42 -58 -6 0 -13 -6 -16 -13 -2 -7 0 -12
5 -11 22 4 33 -3 33 -21 0 -18 -11 -25 -34 -21 -5 1 -6 -5 -3 -14 4 -8 2 -15
-3 -15 -26 0 -5 -19 31 -28 61 -16 67 -10 63 61 -1 34 -3 79 -3 100 -1 26 -5
37 -16 37 -8 0 -15 -8 -15 -17z"/>
<path d="M2817 8201 c-6 -24 19 -36 39 -20 11 9 11 15 3 25 -16 20 -36 17 -42
-5z"/>
<path d="M2560 7895 c0 -4 7 -13 15 -22 17 -17 49 -10 43 10 -5 12 -58 24 -58
12z"/>
<path d="M2702 7650 c0 -19 2 -27 5 -17 2 9 2 25 0 35 -3 9 -5 1 -5 -18z"/>
<path d="M2172 7648 c-7 -7 -12 -21 -12 -33 0 -12 -5 -26 -12 -33 -9 -9 -6
-12 16 -12 15 0 36 -5 46 -10 22 -12 137 3 153 19 15 15 -12 43 -35 38 -23 -7
-99 12 -119 29 -19 17 -22 17 -37 2z"/>
<path d="M1746 7317 c3 -10 9 -15 12 -12 3 3 0 11 -7 18 -10 9 -11 8 -5 -6z"/>
<path d="M7490 5776 c0 -2 9 -6 20 -9 11 -3 18 -1 14 4 -5 9 -34 13 -34 5z"/>
<path d="M1665 5720 c-3 -5 -1 -10 4 -10 6 0 11 5 11 10 0 6 -2 10 -4 10 -3 0
-8 -4 -11 -10z"/>
<path d="M4910 5710 c0 -5 5 -10 10 -10 6 0 10 5 10 10 0 6 -4 10 -10 10 -5 0
-10 -4 -10 -10z"/>
<path d="M8536 5614 c-8 -21 -1 -28 18 -21 9 4 13 13 10 22 -8 20 -20 19 -28
-1z"/>
<path d="M8148 5603 c6 -2 18 -2 25 0 6 3 1 5 -13 5 -14 0 -19 -2 -12 -5z"/>
<path d="M8488 5603 c7 -3 16 -2 19 1 4 3 -2 6 -13 5 -11 0 -14 -3 -6 -6z"/>
<path d="M7368 5523 c7 -3 16 -2 19 1 4 3 -2 6 -13 5 -11 0 -14 -3 -6 -6z"/>
<path d="M6960 5505 c0 -8 5 -15 10 -15 6 0 10 7 10 15 0 8 -4 15 -10 15 -5 0
-10 -7 -10 -15z"/>
<path d="M7053 5513 c15 -2 37 -2 50 0 12 2 0 4 -28 4 -27 0 -38 -2 -22 -4z"/>
<path d="M2977 5480 c-3 -10 1 -27 9 -37 12 -16 13 -15 14 14 0 36 -15 52 -23
23z"/>
<path d="M7004 5492 c-6 -4 -7 -17 -3 -32 l7 -25 1 27 c1 16 8 28 19 31 12 3
13 5 2 6 -8 0 -20 -3 -26 -7z"/>
<path d="M8196 5473 c-12 -12 -6 -33 9 -33 8 0 15 6 15 14 0 17 -14 28 -24 19z"/>
<path d="M1943 5463 c-25 -10 -12 -23 22 -23 36 0 47 13 19 24 -18 7 -23 7
-41 -1z"/>
<path d="M8320 5456 c0 -14 27 -31 43 -27 4 0 17 -3 27 -9 16 -8 20 -8 20 4 0
8 5 16 12 18 6 2 8 10 4 16 -11 18 -106 16 -106 -2z"/>
<path d="M4954 5445 c3 -9 6 -19 6 -21 0 -2 7 -4 15 -4 21 0 19 13 -6 29 -19
11 -21 11 -15 -4z"/>
<path d="M8805 5450 c-3 -5 -2 -10 4 -10 5 0 13 5 16 10 3 6 2 10 -4 10 -5 0
-13 -4 -16 -10z"/>
<path d="M5042 5407 c-12 -13 -22 -29 -22 -35 0 -22 -18 -12 -24 13 -9 34 -22
24 -31 -22 -3 -21 -9 -48 -12 -60 -4 -17 -1 -23 11 -23 9 0 19 -7 22 -15 4 -8
12 -15 20 -15 7 0 18 -8 23 -17 6 -10 11 -13 11 -8 0 6 4 4 9 -4 16 -25 27 -3
25 45 -2 27 0 53 5 58 12 16 8 99 -5 103 -5 2 -20 -7 -32 -20z m5 -39 c-3 -7
-5 -2 -5 12 0 14 2 19 5 13 2 -7 2 -19 0 -25z"/>
<path d="M2020 5400 c0 -11 5 -20 10 -20 6 0 22 -12 35 -26 23 -25 24 -25 35
-5 9 17 8 20 -5 15 -8 -4 -15 -1 -15 5 0 14 -36 51 -50 51 -5 0 -10 -9 -10
-20z"/>
<path d="M2180 5395 c0 -8 5 -15 10 -15 6 0 10 7 10 15 0 8 -4 15 -10 15 -5 0
-10 -7 -10 -15z"/>
<path d="M2121 5323 c-1 -24 4 -43 9 -43 12 0 12 37 0 65 -7 15 -9 10 -9 -22z"/>
<path d="M8750 5349 c0 -5 5 -7 10 -4 6 3 10 8 10 11 0 2 -4 4 -10 4 -5 0 -10
-5 -10 -11z"/>
<path d="M4746 5275 c-8 -21 1 -35 20 -35 10 0 14 8 12 22 -4 27 -23 34 -32
13z"/>
<path d="M8943 5254 c-8 -21 13 -42 28 -27 13 13 5 43 -11 43 -6 0 -13 -7 -17
-16z"/>
<path d="M2694 5203 c1 -27 6 -48 14 -51 6 -2 12 -10 12 -18 0 -8 5 -14 10
-14 6 0 10 21 10 46 0 37 -3 45 -15 40 -11 -4 -15 1 -15 19 0 14 -4 25 -9 25
-5 0 -8 -21 -7 -47z"/>
<path d="M2185 5230 c-3 -5 -1 -10 4 -10 6 0 11 5 11 10 0 6 -2 10 -4 10 -3 0
-8 -4 -11 -10z"/>
<path d="M3195 5199 c-4 -6 -5 -12 -2 -15 2 -3 7 2 10 11 7 17 1 20 -8 4z"/>
<path d="M6960 5144 c0 -9 7 -14 17 -12 25 5 28 28 4 28 -12 0 -21 -6 -21 -16z"/>
<path d="M4442 5053 c-18 -2 -30 -9 -26 -14 3 -5 10 -7 15 -4 5 4 9 -6 9 -22
0 -15 4 -34 9 -42 8 -12 13 -12 35 3 22 14 25 20 16 36 -6 11 -15 20 -20 20
-5 0 -7 7 -4 15 4 8 5 14 3 13 -2 0 -19 -3 -37 -5z"/>
<path d="M3886 4951 c-8 -12 39 -31 54 -21 10 6 8 11 -8 19 -25 13 -39 14 -46
2z"/>
<path d="M2585 4889 c-10 -14 -1 -21 19 -13 9 3 13 10 10 15 -7 12 -21 11 -29
-2z"/>
<path d="M3790 4841 c0 -6 5 -13 10 -16 6 -3 10 1 10 9 0 9 -4 16 -10 16 -5 0
-10 -4 -10 -9z"/>
<path d="M2710 4800 c0 -6 7 -10 15 -10 8 0 15 2 15 4 0 2 -7 6 -15 10 -8 3
-15 1 -15 -4z"/>
<path d="M8350 4796 c0 -7 8 -20 18 -27 15 -13 16 -12 4 3 -8 9 -11 22 -7 28
3 5 1 10 -4 10 -6 0 -11 -6 -11 -14z"/>
<path d="M8403 4739 c-2 -23 3 -25 10 -4 4 8 3 16 -1 19 -4 3 -9 -4 -9 -15z"/>
<path d="M3033 4735 c0 -8 4 -15 9 -15 4 0 8 7 8 15 0 8 -4 15 -8 15 -5 0 -9
-7 -9 -15z"/>
<path d="M8360 4735 c0 -8 7 -15 15 -15 9 0 12 6 9 15 -4 8 -10 15 -15 15 -5
0 -9 -7 -9 -15z"/>
<path d="M3120 4700 c0 -16 7 -20 30 -20 34 0 39 14 11 30 -29 15 -41 12 -41
-10z"/>
<path d="M8997 4653 c-12 -11 -8 -25 6 -20 6 2 19 0 29 -4 11 -6 18 -4 22 8 4
9 4 18 1 21 -3 3 -5 0 -5 -6 0 -7 -7 -12 -15 -12 -8 0 -15 5 -15 10 0 11 -13
13 -23 3z"/>
<path d="M8344 4601 c1 -30 6 -46 16 -48 10 -3 11 -2 3 4 -6 4 -13 26 -16 48
-4 40 -4 40 -3 -4z"/>
<path d="M8393 4600 c0 -25 2 -35 4 -22 2 12 2 32 0 45 -2 12 -4 2 -4 -23z"/>
<path d="M8350 4290 c0 -5 5 -10 11 -10 5 0 7 5 4 10 -3 6 -8 10 -11 10 -2 0
-4 -4 -4 -10z"/>
<path d="M6645 4268 c38 -20 75 -16 75 7 0 11 -14 14 -56 13 l-56 -2 37 -18z"/>
<path d="M6756 4275 c24 -18 44 -19 44 -2 0 9 -12 14 -31 15 -29 1 -30 0 -13
-13z"/>
<path d="M7390 4281 c0 -6 4 -13 10 -16 6 -3 7 1 4 9 -7 18 -14 21 -14 7z"/>
<path d="M7431 4281 c-8 -5 -9 -11 -3 -15 5 -3 12 1 16 9 6 17 6 18 -13 6z"/>
<path d="M8384 4262 c-10 -27 -9 -31 7 -35 11 -3 22 -1 25 4 3 5 1 9 -5 9 -5
0 -11 12 -13 26 l-3 27 -11 -31z"/>
<path d="M6780 4230 c0 -5 5 -10 10 -10 6 0 10 5 10 10 0 6 -4 10 -10 10 -5 0
-10 -4 -10 -10z"/>
<path d="M7441 4231 c-7 -5 -9 -11 -5 -14 14 -8 64 4 58 14 -7 11 -35 11 -53
0z"/>
<path d="M8588 4233 c7 -3 16 -2 19 1 4 3 -2 6 -13 5 -11 0 -14 -3 -6 -6z"/>
<path d="M6660 4185 c0 -18 5 -25 20 -25 11 0 20 7 20 15 0 8 -9 19 -20 25
-18 9 -20 8 -20 -15z"/>
<path d="M8080 4192 c0 -5 -11 -7 -25 -4 -14 2 -25 0 -25 -6 0 -6 12 -13 28
-15 22 -3 20 -4 -10 -6 -38 -1 -52 -21 -26 -37 15 -10 138 -12 138 -3 0 4 9 9
20 12 33 8 23 27 -14 27 -19 0 -38 5 -41 10 -3 6 4 10 16 10 31 0 21 6 -23 14
-21 4 -38 3 -38 -2z"/>
<path d="M8240 4090 c0 -5 5 -10 11 -10 5 0 7 5 4 10 -3 6 -8 10 -11 10 -2 0
-4 -4 -4 -10z"/>
<path d="M6438 4003 c7 -3 16 -2 19 1 4 3 -2 6 -13 5 -11 0 -14 -3 -6 -6z"/>
<path d="M7228 3983 c7 -3 16 -2 19 1 4 3 -2 6 -13 5 -11 0 -14 -3 -6 -6z"/>
<path d="M6071 3937 c-8 -10 -7 -14 4 -14 8 0 15 6 15 14 0 7 -2 13 -4 13 -2
0 -9 -6 -15 -13z"/>
<path d="M6030 3745 c0 -8 2 -15 4 -15 2 0 6 7 10 15 3 8 1 15 -4 15 -6 0 -10
-7 -10 -15z"/>
<path d="M6057 3723 c-4 -3 -7 -51 -7 -105 l0 -98 41 0 41 0 -7 83 c-8 103
-12 117 -31 110 -7 -3 -14 0 -14 6 0 12 -13 15 -23 4z"/>
<path d="M9037 3634 c-4 -4 -7 -16 -7 -26 0 -16 3 -17 21 -8 11 6 19 16 16 23
-4 14 -21 20 -30 11z"/>
<path d="M6010 3561 c0 -22 5 -41 13 -44 9 -3 11 7 8 39 -4 54 -21 58 -21 5z"/>
<path d="M9075 3570 c3 -5 15 -10 26 -10 10 0 19 5 19 10 0 6 -12 10 -26 10
-14 0 -23 -4 -19 -10z"/>
<path d="M9028 3538 c-3 -7 1 -19 8 -26 16 -16 55 4 47 25 -6 17 -50 17 -55 1z"/>
<path d="M8865 3520 c3 -5 8 -10 11 -10 2 0 4 5 4 10 0 6 -5 10 -11 10 -5 0
-7 -4 -4 -10z"/>
<path d="M5921 3464 c0 -11 3 -14 6 -6 3 7 2 16 -1 19 -3 4 -6 -2 -5 -13z"/>
<path d="M7280 3444 c0 -8 5 -12 10 -9 6 4 8 11 5 16 -9 14 -15 11 -15 -7z"/>
<path d="M5911 3424 c0 -11 3 -14 6 -6 3 7 2 16 -1 19 -3 4 -6 -2 -5 -13z"/>
<path d="M6830 3431 c0 -6 5 -13 10 -16 6 -3 10 1 10 9 0 9 -4 16 -10 16 -5 0
-10 -4 -10 -9z"/>
<path d="M7938 3398 c17 -8 26 -8 34 0 9 9 4 12 -22 11 -33 0 -34 -1 -12 -11z"/>
<path d="M7753 3373 c43 -2 110 -2 150 0 40 1 5 3 -78 3 -82 0 -115 -2 -72 -3z"/>
<path d="M7618 3353 c12 -2 32 -2 45 0 12 2 2 4 -23 4 -25 0 -35 -2 -22 -4z"/>
<path d="M7980 3350 c0 -5 5 -10 10 -10 6 0 10 5 10 10 0 6 -4 10 -10 10 -5 0
-10 -4 -10 -10z"/>
<path d="M6920 3330 c0 -5 5 -10 10 -10 6 0 10 5 10 10 0 6 -4 10 -10 10 -5 0
-10 -4 -10 -10z"/>
<path d="M8055 3320 c3 -5 10 -10 16 -10 5 0 9 5 9 10 0 6 -7 10 -16 10 -8 0
-12 -4 -9 -10z"/>
<path d="M7280 2924 c0 -8 5 -12 10 -9 6 4 8 11 5 16 -9 14 -15 11 -15 -7z"/>
<path d="M7426 2925 c-3 -8 -1 -15 4 -15 5 0 10 -8 13 -17 4 -17 4 -17 12 0 8
19 0 47 -14 47 -5 0 -11 -7 -15 -15z"/>
<path d="M6380 2911 c0 -5 5 -13 10 -16 6 -3 10 -2 10 4 0 5 -4 13 -10 16 -5
3 -10 2 -10 -4z"/>
<path d="M7385 2810 c-3 -5 1 -10 9 -10 9 0 16 5 16 10 0 6 -4 10 -9 10 -6 0
-13 -4 -16 -10z"/>
<path d="M8050 2670 c0 -13 46 -24 60 -15 9 6 9 10 -1 16 -19 12 -59 11 -59
-1z"/>
<path d="M8410 2673 c-14 -2 -41 -6 -60 -10 l-35 -6 40 -8 c22 -3 42 -3 45 2
3 4 12 4 20 -1 23 -15 60 -12 60 4 0 13 -23 28 -38 25 -4 -1 -18 -3 -32 -6z"/>
<path d="M5980 2650 c0 -5 5 -10 10 -10 6 0 10 5 10 10 0 6 -4 10 -10 10 -5 0
-10 -4 -10 -10z"/>
<path d="M8283 2633 c-46 -4 -56 -17 -23 -28 26 -8 57 2 64 20 3 8 4 14 3 13
-1 -1 -21 -3 -44 -5z"/>
<path d="M7955 2420 c-3 -5 1 -10 10 -10 9 0 13 5 10 10 -3 6 -8 10 -10 10 -2
0 -7 -4 -10 -10z"/>
<path d="M2180 3447 c-22 -11 -25 -19 -25 -65 1 -67 16 -82 91 -89 52 -4 62
-2 85 18 34 31 40 50 28 92 -7 26 -17 38 -41 46 -42 15 -107 14 -138 -2z"/>
<path d="M1659 2579 c-18 -18 -21 -29 -16 -71 9 -70 18 -78 93 -78 62 0 63 0
80 35 9 19 23 35 30 35 8 0 14 7 14 15 0 8 -6 15 -13 15 -8 0 -19 11 -25 25
-22 48 -124 63 -163 24z"/>
</g>
</svg>
